<svg width="18" height="18" viewBox="0 0 18 18" fill="none" xmlns="http://www.w3.org/2000/svg">
<path d="M10.125 12.6562C10.125 12.8788 10.059 13.0963 9.93541 13.2813C9.81179 13.4663 9.63609 13.6105 9.43052 13.6956C9.22496 13.7808 8.99876 13.803 8.78053 13.7596C8.5623 13.7162 8.36184 13.6091 8.20451 13.4517C8.04717 13.2944 7.94003 13.094 7.89662 12.8757C7.85321 12.6575 7.87549 12.4313 7.96064 12.2257C8.04579 12.0202 8.18998 11.8445 8.37499 11.7208C8.55999 11.5972 8.7775 11.5312 9 11.5312C9.29837 11.5312 9.58452 11.6498 9.7955 11.8608C10.0065 12.0717 10.125 12.3579 10.125 12.6562ZM16.5938 9C16.5938 10.5019 16.1484 11.9701 15.314 13.2189C14.4796 14.4676 13.2936 15.441 11.906 16.0157C10.5184 16.5905 8.99158 16.7408 7.51854 16.4478C6.04549 16.1548 4.69242 15.4316 3.63041 14.3696C2.56841 13.3076 1.84517 11.9545 1.55217 10.4815C1.25916 9.00842 1.40954 7.48157 1.98429 6.094C2.55905 4.70642 3.53236 3.52044 4.78114 2.68603C6.02993 1.85162 7.4981 1.40625 9 1.40625C11.0133 1.40848 12.9435 2.20925 14.3671 3.63287C15.7907 5.0565 16.5915 6.9867 16.5938 9ZM14.9063 9C14.9063 7.83185 14.5599 6.68994 13.9109 5.71866C13.2619 4.74739 12.3395 3.99037 11.2602 3.54334C10.181 3.09631 8.99345 2.97934 7.84775 3.20724C6.70205 3.43513 5.64966 3.99765 4.82365 4.82365C3.99765 5.64965 3.43513 6.70205 3.20724 7.84775C2.97935 8.99345 3.09631 10.181 3.54334 11.2602C3.99037 12.3394 4.74739 13.2619 5.71867 13.9109C6.68994 14.5599 7.83186 14.9062 9 14.9062C10.5659 14.9046 12.0672 14.2818 13.1745 13.1745C14.2818 12.0672 14.9046 10.5659 14.9063 9ZM9 4.5C7.29422 4.5 5.90625 5.76141 5.90625 7.3125V7.59375C5.90625 7.81753 5.99515 8.03214 6.15338 8.19037C6.31162 8.34861 6.52623 8.4375 6.75 8.4375C6.97378 8.4375 7.18839 8.34861 7.34662 8.19037C7.50486 8.03214 7.59375 7.81753 7.59375 7.59375V7.3125C7.59375 6.69234 8.22657 6.1875 9 6.1875C9.77344 6.1875 10.4063 6.69234 10.4063 7.3125C10.4063 7.93266 9.77344 8.4375 9 8.4375C8.77623 8.4375 8.56162 8.52639 8.40338 8.68463C8.24515 8.84286 8.15625 9.05747 8.15625 9.28125V9.84375C8.15575 10.0522 8.23243 10.2535 8.37152 10.4087C8.5106 10.564 8.70225 10.6623 8.9095 10.6847C9.11676 10.707 9.32495 10.6519 9.49395 10.5298C9.66296 10.4078 9.7808 10.2275 9.82477 10.0238C11.1312 9.69469 12.0938 8.60414 12.0938 7.3125C12.0938 5.76141 10.7058 4.5 9 4.5Z" fill="#0099EF"/>
</svg>
